<?xml version="1.0" encoding="UTF-8" standalone="no"?>
<!-- Created with Inkscape (http://www.inkscape.org/) -->

<svg
   width="32"
   height="32"
   viewBox="0 0 32 32"
   version="1.1"
   id="svg1"
   inkscape:version="1.3.2 (091e20ef0f, 2023-11-25, custom)"
   sodipodi:docname="darkicon.svg"
   xmlns:inkscape="http://www.inkscape.org/namespaces/inkscape"
   xmlns:sodipodi="http://sodipodi.sourceforge.net/DTD/sodipodi-0.dtd"
   xmlns="http://www.w3.org/2000/svg"
   xmlns:svg="http://www.w3.org/2000/svg">
  <sodipodi:namedview
     id="namedview1"
     pagecolor="#505050"
     bordercolor="#eeeeee"
     borderopacity="1"
     inkscape:showpageshadow="0"
     inkscape:pageopacity="0"
     inkscape:pagecheckerboard="0"
     inkscape:deskcolor="#505050"
     inkscape:document-units="px"
     inkscape:zoom="14.893437"
     inkscape:cx="12.9923"
     inkscape:cy="15.778763"
     inkscape:window-width="1892"
     inkscape:window-height="1010"
     inkscape:window-x="12"
     inkscape:window-y="54"
     inkscape:window-maximized="1"
     inkscape:current-layer="layer1" />
  <defs
     id="defs1" />
  <g
     inkscape:label="Layer 1"
     inkscape:groupmode="layer"
     id="layer1">
    <path
       style="fill:#000000;fill-opacity:0.807034"
       id="path3"
       d="m 21.210923,5.316531 c -0.569737,0.02743 -1.139661,0.00584 -1.709389,-0.00983 -0.895395,-0.015156 -1.791929,-0.039478 -2.687181,-0.011539 -0.808027,0.0399 -1.608713,0.1565467 -2.397171,0.3343962 -0.489914,0.1207755 -0.967708,0.29134 -1.416286,0.523383 C 12.705205,6.3059023 12.590939,6.3855033 12.307739,6.5626233 11.832377,6.8960038 11.371188,7.2536752 10.959208,7.6640539 10.722817,7.8995261 10.597959,8.0495335 10.378725,8.298702 10.072093,8.6738281 9.770632,9.0567743 9.519855,9.4724399 9.382832,9.6995575 9.322696,9.8303298 9.203323,10.067391 c -0.377442,0.745537 -0.661395,1.530677 -0.9051956,2.328501 -0.2190869,0.856621 -0.3064585,1.744125 -0.3523472,2.625452 -0.057808,0.823903 0.018555,1.630848 0.128733,2.445901 0.079196,0.51896 0.1521206,1.039765 0.2714192,1.55148 0.07873,0.337701 0.1387106,0.542464 0.2308006,0.876805 0.153629,0.523868 0.325005,1.043645 0.555331,1.539376 0.146517,0.315349 0.201569,0.405021 0.366904,0.708551 0.332957,0.606881 0.770233,1.145264 1.255615,1.635487 0.693051,0.705613 1.526039,1.107393 2.386273,1.598535 0.503899,0.243514 1.045381,0.38507 1.584273,0.525936 0.584374,0.166024 1.186042,0.254825 1.78512,0.347914 0.705145,0.113592 1.416638,0.170338 2.128187,0.224974 0.811849,0.07134 1.626757,0.103043 2.441288,0.124046 0.729774,0.01925 1.459759,0.01552 2.189692,0.01697 0.428413,0.0021 0.854744,-0.02884 1.280515,-0.07228 0,0 -1.055169,-0.748135 -1.055169,-0.748135 v 0 c -0.409753,0.05369 -0.821379,0.08759 -1.235084,0.08672 -0.727135,7.15e-4 -1.454334,-0.003 -2.181376,-0.01474 -0.815216,-0.02036 -1.630277,-0.05249 -2.442164,-0.132814 -0.71078,-0.05661 -1.420819,-0.122573 -2.125336,-0.235089 -0.602917,-0.09683 -1.204648,-0.205189 -1.793364,-0.369922 -0.536707,-0.141072 -1.07354,-0.292929 -1.567905,-0.551508 1.710061,1.005434 0.777201,0.47967 0.42631,0.227954 -0.230685,-0.165484 -0.44928,-0.348722 -0.653372,-0.545942 -0.499004,-0.478028 -0.948676,-1.008356 -1.291057,-1.61146 C 10.46692,22.357678 10.402813,22.25536 10.258113,21.950905 10.024241,21.458825 9.844869,20.942645 9.684487,20.4227 9.463486,19.631919 9.295726,18.829032 9.186325,18.014825 9.074678,17.208824 8.989328,16.399332 9.037032,15.584071 c 0.03957,-0.873169 0.131368,-1.74628 0.345504,-2.595733 0.227928,-0.795595 0.51994,-1.568471 0.910389,-2.299958 0.316358,-0.624413 0.68986,-1.2156396 1.142468,-1.7517525 0.221076,-0.2538341 0.329948,-0.3882923 0.570821,-0.6262165 0.408584,-0.403581 0.864821,-0.7579162 1.34171,-1.0766082 0.284734,-0.1733305 0.39217,-0.2471141 0.689346,-0.3951427 0.445511,-0.2219168 0.918675,-0.3817565 1.401293,-0.5006852 0.780484,-0.1715476 1.572699,-0.2851325 2.371525,-0.3240971 0.897902,-0.027984 1.795834,0.00178 2.693603,0.025373 0.590693,0.017909 1.181306,0.038658 1.772148,0.050987 z" />
    <path
       style="fill:#000000;fill-opacity:0.807034"
       id="path4"
       d="m 23.338959,25.39063 c -0.378401,0.01102 -0.757073,0.0161 -1.135491,0.0056 -0.596448,-0.01587 -1.173511,-0.146893 -1.740893,-0.321167 -0.70409,-0.223374 -1.373858,-0.535862 -2.041706,-0.847897 0.206949,0.138013 -1.025552,-0.554249 -0.770546,-0.41315 0.216393,0.119733 0.416214,0.275322 0.648264,0.36085 0.153883,0.05672 -0.275241,-0.178545 -0.409436,-0.272824 C 17.555375,23.66754 17.442942,23.567075 17.125396,23.309351 16.417748,22.704401 15.81344,21.99526 15.260924,21.2493 14.975111,20.851596 14.716075,20.43224 14.538067,19.974288 14.421019,19.673163 14.410298,19.596005 14.328348,19.283815 14.174917,18.601299 14.153174,17.90019 14.141051,17.203664 c 0.0046,-0.378547 -0.01395,-0.758281 0.01808,-1.136055 0.01966,-0.231838 0.03525,-0.308618 0.07029,-0.539193 0.110589,-0.637262 0.298769,-1.256518 0.508729,-1.867029 0.208751,-0.64646 0.511653,-1.253054 0.828445,-1.851712 0.28851,-0.543105 0.668514,-1.026853 1.058699,-1.499064 0.450807,-0.5210894 0.996112,-0.9462991 1.5364,-1.3690718 0.712404,-0.5416991 1.474227,-1.012796 2.237778,-1.4778014 0.475876,-0.2756798 0.957464,-0.5422277 1.445721,-0.795356 0.06745,-0.035144 0.134899,-0.070288 0.202348,-0.1054323 0,0 -1.071471,-0.7004029 -1.071471,-0.7004029 v 0 c -0.06528,0.036266 -0.130567,0.072533 -0.19585,0.1087991 -0.48296,0.2621666 -0.972338,0.5141722 -1.432903,0.8150952 -0.74664,0.4897943 -1.499342,0.9712705 -2.217167,1.5032475 -0.565522,0.4136196 -1.138196,0.830916 -1.59563,1.3673422 -0.39062,0.4818324 -0.756817,0.9849114 -1.04903,1.5336914 -0.320341,0.603623 -0.642473,1.207875 -0.851516,1.861491 -0.209527,0.617742 -0.385497,1.245644 -0.525541,1.882947 -0.03423,0.21282 -0.05734,0.334069 -0.07754,0.548556 -0.0361,0.38338 -0.0089,0.76841 -0.0087,1.152619 0.01523,0.705739 0.03401,1.415726 0.181061,2.108958 0.07314,0.299312 0.09307,0.416504 0.198495,0.706178 0.172082,0.47281 0.435469,0.902865 0.728449,1.309553 0.55538,0.754744 1.159011,1.472679 1.864921,2.093068 0.324064,0.269251 0.418797,0.357411 0.760103,0.603453 0.824978,0.594713 1.728076,1.076065 2.63206,1.538358 0.676939,0.315096 1.356481,0.630277 2.072249,0.848838 0.57712,0.168818 1.164686,0.286402 1.768271,0.300327 0.39306,0.01216 0.786258,0.01075 1.179337,0.02166 z" />
    <circle
       id="path9"
       style="fill:#000000;stroke:#000000"
       cx="27.492235"
       cy="4.3387375"
       r="0.0029811789" />
    <circle
       id="path10"
       style="fill:#000000;stroke:#000000"
       cx="29.163643"
       cy="25.553732"
       r="0.0029811789" />
    <circle
       id="path11"
       style="fill:#000000;stroke:#000000"
       cx="20.089891"
       cy="16.808416"
       r="0.0029811789" />
    <circle
       id="path12"
       style="fill:#000000;stroke:#000000"
       cx="6.4206667"
       cy="26.536228"
       r="0.0029811789" />
    <circle
       id="path13"
       style="fill:#000000;stroke:#000000"
       cx="3.9784756"
       cy="13.467175"
       r="0.0029811789" />
    <circle
       id="path14"
       style="fill:#000000;stroke:#000000"
       cx="9.5189428"
       cy="2.9528768"
       r="0.0029811789" />
    <circle
       id="path15"
       style="fill:#000000;stroke:#000000"
       cx="2.1229267"
       cy="5.2292004"
       r="0.0029811789" />
    <circle
       id="path16"
       style="fill:#000000;stroke:#000000"
       cx="14.715291"
       cy="29.798347"
       r="0.0029811789" />
    <circle
       id="path17"
       style="fill:#000000;stroke:#000000"
       cx="27.533121"
       cy="29.155844"
       r="0.0029811789" />
  </g>
</svg>
