<?xml version="1.0" encoding="UTF-8" standalone="no"?>
<!-- Created with Inkscape (http://www.inkscape.org/) -->

<svg
   width="32"
   height="32"
   viewBox="0 0 32 32"
   version="1.1"
   id="svg1"
   inkscape:version="1.3.2 (091e20ef0f, 2023-11-25, custom)"
   sodipodi:docname="lighticon.svg"
   xmlns:inkscape="http://www.inkscape.org/namespaces/inkscape"
   xmlns:sodipodi="http://sodipodi.sourceforge.net/DTD/sodipodi-0.dtd"
   xmlns="http://www.w3.org/2000/svg"
   xmlns:svg="http://www.w3.org/2000/svg">
  <sodipodi:namedview
     id="namedview1"
     pagecolor="#505050"
     bordercolor="#eeeeee"
     borderopacity="1"
     inkscape:showpageshadow="0"
     inkscape:pageopacity="0"
     inkscape:pagecheckerboard="0"
     inkscape:deskcolor="#505050"
     inkscape:document-units="px"
     inkscape:zoom="14.893437"
     inkscape:cx="8.5608178"
     inkscape:cy="15.241613"
     inkscape:window-width="1892"
     inkscape:window-height="1010"
     inkscape:window-x="12"
     inkscape:window-y="54"
     inkscape:window-maximized="1"
     inkscape:current-layer="layer1" />
  <defs
     id="defs1" />
  <g
     inkscape:label="Layer 1"
     inkscape:groupmode="layer"
     id="layer1">
    <path
       id="path1"
       style="fill:#000000;fill-opacity:0.807034"
       d="m 15.6875,7.4511719 c -0.01397,0.00672 -0.0272,0.01448 -0.04102,0.021484 9.88e-4,1.084e-4 0.0072,-5.3e-5 0.0078,0 0.0046,3.382e-4 0.0091,-2.99e-4 0.01367,0 0.0067,-0.00701 0.01285,-0.014482 0.01953,-0.021484 z m -0.255859,0.1464843 c -0.01458,0.010021 -0.03067,0.018791 -0.04492,0.029297 0.02654,0.025482 0.03526,0.013949 0.04492,-0.029297 z m -2.455079,7.4511718 c -0.0072,0.03944 -0.02034,0.104775 -0.0059,0.08984 0.01222,-0.01261 0.01452,-0.03345 0.01172,-0.05078 -0.0021,-0.01297 -0.0039,-0.026 -0.0059,-0.03906 z" />
    <path
       style="fill:#000000;fill-opacity:0.807034"
       id="path7"
       d="M 19.347206,10.861013 C 18.425722,10.284101 17.49677,9.7453072 16.452925,9.4340424 16.280637,9.3826676 16.105007,9.3432492 15.931047,9.2978526 15.11871,9.1230836 14.277205,9.0222362 13.44668,9.1157045 13.312667,9.1307864 13.180468,9.1590455 13.047362,9.1807161 12.371933,9.3213415 11.825,9.6474409 11.301989,10.08749 c -0.112733,0.09485 -0.218913,0.197226 -0.328369,0.295838 -0.46567,0.484775 -0.886278,1.014098 -1.2008478,1.610629 -0.1874116,0.355396 -0.2727116,0.596969 -0.4207967,0.967917 -0.1947328,0.566823 -0.3371063,1.154786 -0.4081426,1.750576 -0.03801,0.318792 -0.031553,0.403188 -0.036588,0.718191 0.016214,0.676051 0.2343508,1.322692 0.4888525,1.94218 0.1209922,0.260659 0.2475649,0.523411 0.4146519,0.758655 0.1844207,0.259649 0.4069097,0.486151 0.6300117,0.711728 0.731482,0.700331 1.623902,1.21509 2.536692,1.643028 0.577193,0.205945 1.165238,0.394633 1.76707,0.515231 0.131104,0.02627 0.263293,0.0468 0.39494,0.07021 0.680404,0.116126 1.368448,0.167813 2.057329,0.195261 0.155117,5.5e-4 0.333524,0.008 0.488338,-0.01705 0.353372,-0.05715 0.683929,-0.216457 1.005436,-0.365174 0.215862,-0.109981 0.436741,-0.214241 0.640125,-0.346978 0.222991,-0.145533 0.426028,-0.318742 0.629744,-0.489301 0.298677,-0.260604 0.575615,-0.551714 0.804218,-0.87671 0.04697,-0.06677 0.08807,-0.137473 0.1321,-0.206209 0.282601,-0.451432 0.479395,-0.947312 0.670668,-1.442093 0.198853,-0.513405 0.302138,-1.055838 0.371057,-1.600031 0.05026,-0.420966 0.04774,-0.844923 0.05252,-1.268012 0.0056,-0.236013 0.0026,-0.472779 -0.039,-0.705812 -0.02172,-0.121583 -0.04848,-0.220087 -0.07838,-0.339922 -0.09458,-0.340908 -0.225362,-0.669833 -0.361266,-0.995919 -0.128215,-0.319791 -0.310563,-0.60829 -0.522051,-0.87848 -0.18667,-0.232679 -0.410919,-0.429594 -0.652662,-0.60265 -0.03921,-0.02502 -0.07729,-0.0519 -0.117617,-0.07507 -0.407397,-0.234039 -0.8139,-0.469753 -1.225419,-0.696465 -0.04176,-0.023 -0.286183,-0.105316 -0.312074,-0.114211 -0.187249,-0.06433 -0.269291,-0.09155 -0.461217,-0.156103 C 17.709394,9.9446186 17.196432,9.7995933 16.673887,9.695697 16.517262,9.664556 16.359744,9.638084 16.202673,9.609277 15.996938,9.581764 15.791202,9.554251 15.585467,9.526738 c 0,0 0.894985,0.671743 0.894985,0.671743 v 0 c 0.21801,0.03889 0.43602,0.07777 0.654031,0.116659 0.69667,0.153685 1.390919,0.320702 2.07002,0.541125 0.160592,0.05684 0.317576,0.110942 0.476296,0.17252 0.06326,0.02454 0.126177,0.04999 0.188483,0.07685 0.04389,0.01892 0.170988,0.08508 0.130019,0.06046 -0.649406,-0.390202 -1.357004,-0.779021 -0.857139,-0.503449 0.250707,0.166507 0.473702,0.344976 0.673139,0.572476 0.22079,0.255495 0.403153,0.536171 0.539823,0.84594 0.136461,0.320684 0.264984,0.644774 0.368166,0.97798 0.04165,0.161794 0.08832,0.325004 0.111783,0.49079 0.02481,0.175287 0.02496,0.353557 0.0271,0.53009 0.003,0.421027 -0.0014,0.842763 -0.03244,1.262801 -0.05291,0.538473 -0.145353,1.072217 -0.348163,1.577121 -0.180024,0.488864 -0.390871,0.969442 -0.666507,1.412726 -0.261159,0.386312 -0.555478,0.750491 -0.910112,1.055931 -0.159904,0.133003 -0.24343,0.208228 -0.414537,0.327423 -0.26424,0.184072 -0.55026,0.336158 -0.836998,0.481337 -0.181493,0.08241 -0.301079,0.14222 -0.490709,0.206026 -0.313061,0.105339 -0.637581,0.14394 -0.967082,0.130963 -0.673937,-0.01962 -1.34822,-0.06444 -2.012616,-0.185144 -0.739,-0.147804 -1.475272,-0.33205 -2.169087,-0.631833 -0.425804,-0.214416 -0.724733,-0.371959 0.52967,0.331187 0.08678,0.04864 -0.169445,-0.104385 -0.251872,-0.160079 -0.177696,-0.120064 -0.32494,-0.232676 -0.488134,-0.371893 -0.07695,-0.06565 -0.150392,-0.135309 -0.225588,-0.202964 -0.180371,-0.174448 -0.271068,-0.254996 -0.437181,-0.444815 -0.257965,-0.294778 -0.460591,-0.629061 -0.62793,-0.982528 -0.26817,-0.604262 -0.487257,-1.236169 -0.5200602,-1.902468 -0.00196,-0.114399 -0.00849,-0.228811 -0.00588,-0.343197 0.016379,-0.717926 0.1584922,-1.431735 0.3792532,-2.113069 0.160427,-0.414796 0.200616,-0.556221 0.41242,-0.951229 0.313138,-0.583998 0.725547,-1.109093 1.203592,-1.566498 0.109228,-0.09538 0.214994,-0.194884 0.327682,-0.286155 0.506182,-0.409976 1.077156,-0.72325 1.720008,-0.8525742 0.12886,-0.02032 0.256975,-0.046118 0.38658,-0.060959 0.813809,-0.093186 1.636055,0.00223 2.429421,0.1901672 0.173747,0.04866 0.34929,0.09132 0.521242,0.145987 0.334612,0.106383 0.645474,0.231651 0.963383,0.379877 0.134209,0.06258 0.519928,0.282165 0.396491,0.200364 -0.246862,-0.163592 -0.511221,-0.299121 -0.768042,-0.446586 -0.06077,-0.03489 0.119897,0.07256 0.179845,0.108847 z" />
    <path
       style="fill:#000000;fill-opacity:0.807034;stroke-width:1.26946"
       id="path2"
       d="m 14.86504,11.129476 c -0.21532,0.122177 -0.457129,0.169676 -0.689094,0.2402 -0.226974,0.08286 -0.459852,0.154337 -0.678651,0.261633 -0.159572,0.07826 -0.239263,0.132191 -0.39337,0.226542 -0.32108,0.219702 -0.64034,0.451896 -0.904941,0.750775 -0.04929,0.05567 -0.09409,0.115863 -0.14115,0.173793 -0.298133,0.410952 -0.48169,0.901818 -0.663073,1.382422 -0.114997,0.306507 -0.20326,0.625636 -0.262001,0.950639 -0.02859,0.158178 -0.04964,0.341408 -0.06987,0.501124 -0.0393,0.316809 -0.0307,0.636412 0.04256,0.946654 0.04135,0.175044 0.06478,0.222307 0.126069,0.385408 0.145381,0.353014 0.413448,0.54865 0.703093,0.748078 0.719957,0.362122 1.390885,1.008641 2.181689,1.25061 0.229541,0.07758 0.466469,0.113392 0.70423,0.143808 0.3048,0.04839 0.610206,0.08949 0.91748,0.113486 0.364135,0.01764 0.729138,0.02608 1.093499,0.0136 0.386274,-0.0091 0.753064,-0.135185 1.106514,-0.294855 0.259895,-0.128455 0.506024,-0.291876 0.729077,-0.486093 0.149997,-0.130602 0.215082,-0.205362 0.353394,-0.350156 0.214104,-0.233062 0.393718,-0.497803 0.53709,-0.787918 0.08355,-0.169062 0.114048,-0.255736 0.183593,-0.430598 0.101513,-0.2685 0.186606,-0.545229 0.23487,-0.831323 0.02955,-0.17509 0.03048,-0.232935 0.04531,-0.411405 0.0353,-0.36963 0.0048,-0.738432 -0.07912,-1.097358 -0.07897,-0.299939 -0.216453,-0.570572 -0.383728,-0.821588 -0.215799,-0.319887 -0.499829,-0.566956 -0.79744,-0.790353 -0.611444,-0.428674 -0.275483,-0.196961 -1.624432,-1.032902 -0.06086,-0.0377 -0.243673,-0.128324 -0.310944,-0.154283 -0.06198,-0.02392 -0.267912,-0.0821 -0.33171,-0.100582 -0.287459,-0.08959 -0.582645,-0.131529 -0.880236,-0.150492 -0.323808,-0.0071 -0.6482,-0.0047 -0.971955,0.0065 -0.164017,-0.0074 -0.322418,0.02899 -0.481211,0.0671 0,0 1.266955,0.963939 1.266955,0.963939 v 0 c 0.153371,-0.02514 0.306827,-0.04795 0.462329,-0.04978 0.326962,-0.0092 0.654063,-0.0017 0.98049,0.02103 0.286294,0.02584 0.570051,0.07507 0.845596,0.166139 0.162256,0.0542 0.315867,0.113823 0.467917,0.196843 0.05015,0.02737 0.197039,0.116845 0.148696,0.08584 -1.580725,-1.01354 -1.486339,-0.952359 -0.999332,-0.627015 0.295253,0.204398 0.581989,0.426318 0.799179,0.730008 0.170251,0.233055 0.312262,0.482257 0.406348,0.763671 0.09892,0.340558 0.156444,0.6939 0.123155,1.052317 -0.03427,0.412083 -0.094,0.820794 -0.249243,1.20249 -0.06628,0.175762 -0.08786,0.245413 -0.170642,0.414191 -0.135417,0.276097 -0.307985,0.528185 -0.508581,0.752113 -0.05566,0.05702 -0.109145,0.116666 -0.166972,0.17107 -0.267491,0.25166 -0.573326,0.45306 -0.899495,0.600245 -0.347125,0.13958 -0.703462,0.247385 -1.077056,0.245384 -0.36512,0.0037 -0.730631,-0.0038 -1.094725,-0.03584 -0.309863,-0.03127 -0.617834,-0.07882 -0.925284,-0.130986 -0.231944,-0.0388 -0.462921,-0.08741 -0.68665,-0.166054 -0.580241,-0.225502 -1.775151,-1.027916 0.488458,0.393935 -0.280053,-0.178184 -0.563575,-0.349745 -0.74034,-0.657525 -0.07109,-0.149606 -0.101101,-0.19929 -0.15142,-0.362491 -0.08959,-0.290629 -0.105617,-0.593531 -0.07643,-0.897105 0.05482,-0.483498 0.145779,-0.963279 0.30558,-1.419756 0.170264,-0.466887 0.360002,-0.930381 0.653526,-1.323218 0.04445,-0.05429 0.08688,-0.110583 0.133319,-0.162879 0.255141,-0.287403 0.557532,-0.520409 0.87543,-0.717704 0.06718,-0.0367 0.133098,-0.0762 0.201493,-0.110093 0.280849,-0.139194 0.579574,-0.235624 0.875681,-0.326946 0.248233,-0.06438 0.49467,-0.13533 0.741035,-0.206641 z" />
    <path
       style="fill:#000000;fill-opacity:0.807034"
       id="path3"
       d="m 15.735695,14.076785 c -0.199712,0.08824 -0.40895,0.15045 -0.617542,0.213558 -0.23922,0.08061 -0.474824,0.172221 -0.707392,0.270423 -0.137751,0.0574 -0.260528,0.137153 -0.364193,0.243964 -0.137335,0.148268 -0.155109,0.351409 -0.182519,0.542547 -0.02769,0.188741 -0.04183,0.369726 0.0084,0.55531 0.03082,0.07529 0.0794,0.173831 0.153076,0.2176 1.138621,0.676447 0.731737,0.565497 1.221588,0.692487 0.125868,0.02379 0.254332,0.01988 0.381741,0.01703 0.09737,-0.0049 0.195484,0.0059 0.292795,8.89e-4 0.01475,-7.52e-4 0.09759,-0.01164 0.115142,-0.0139 0.10248,-0.0074 0.190156,-0.0642 0.274774,-0.117684 0.122546,-0.07551 0.236725,-0.163766 0.341642,-0.26212 0.127183,-0.117728 0.232486,-0.253775 0.330162,-0.396118 0.101216,-0.140861 0.164287,-0.301209 0.215015,-0.46566 0.03077,-0.103972 0.05357,-0.210237 0.06076,-0.318498 -0.0019,-0.04367 -0.0088,-0.140039 -0.05226,-0.165894 -1.130045,-0.673044 -0.720007,-0.609853 -1.206561,-0.677988 -0.0622,-0.0011 -0.125508,-0.0132 -0.187821,-0.0077 -0.03205,0.0028 -0.06342,0.01081 -0.09517,0.01601 -0.07972,0.01025 -0.156591,0.03822 -0.227394,0.07567 -0.06207,0.04105 -0.129006,0.07339 -0.190288,0.115657 -0.07721,0.05009 -0.152485,0.100431 -0.223746,0.15886 -0.07986,0.0666 -0.156294,0.137172 -0.22871,0.211772 -0.09735,0.106006 -0.192865,0.214061 -0.285233,0.324459 -0.08663,0.09707 -0.168602,0.199938 -0.266902,0.285713 -0.01001,0.0084 -0.02002,0.01677 -0.03003,0.02516 0,0 1.117737,0.6909 1.117737,0.6909 v 0 c 0.01004,-0.01017 0.02007,-0.02034 0.03011,-0.03051 0.08854,-0.09854 0.170681,-0.202623 0.257509,-0.302657 0.09479,-0.104934 0.188812,-0.211199 0.291553,-0.308401 0.07249,-0.06752 0.142491,-0.138107 0.221224,-0.198547 0.07194,-0.05236 0.148878,-0.09753 0.224196,-0.144842 0.0587,-0.03463 0.117095,-0.07076 0.179201,-0.09889 0.06555,-0.02264 0.131485,-0.04131 0.201367,-0.04464 0.0842,-0.0046 0.171328,0.0056 0.249721,0.03769 0.420956,0.244048 -0.660011,-0.382583 -1.052709,-0.615612 -0.07866,-0.04668 0.07591,0.02723 0.08519,0.03797 0.006,0.007 0.0092,0.01604 0.01373,0.02406 0.02043,0.09452 -0.01005,0.195729 -0.0248,0.288967 -0.04083,0.153619 -0.09443,0.302304 -0.189549,0.43175 -0.09327,0.133751 -0.195675,0.260501 -0.318723,0.368417 -0.103347,0.09042 -0.215395,0.168792 -0.337352,0.232372 -0.07758,0.04081 -0.15571,0.06898 -0.244282,0.07277 -0.12881,0.01214 -0.258745,0.0068 -0.387945,0.0072 -0.122362,-0.0061 -0.248432,-0.0078 -0.361074,-0.06217 -0.350748,-0.206511 -1.209292,-0.711921 1.019276,0.594776 0.01703,0.01 -0.03524,-0.01784 -0.05224,-0.02788 -0.03566,-0.02106 -0.06749,-0.04289 -0.09661,-0.07271 -0.01443,-0.01477 -0.02623,-0.0319 -0.03934,-0.04785 -0.02405,-0.04695 -0.0421,-0.07536 -0.05417,-0.128018 -0.02844,-0.124071 -0.0081,-0.254031 -6.09e-4,-0.378891 0.02049,-0.162287 0.04005,-0.334863 0.161381,-0.456178 0.09592,-0.08823 0.204964,-0.159698 0.322901,-0.215448 0.222941,-0.103832 0.452214,-0.192395 0.687231,-0.265172 0.217908,-0.06645 0.435427,-0.135473 0.656269,-0.191406 z" />
    <path
       style="fill:#000000;fill-opacity:0.807034"
       id="path4"
       d="M 16.541796,10.046979 C 16.449802,9.8678415 16.423241,9.6669686 16.401269,9.4694403 16.381397,9.2233404 16.373282,8.976381 16.372117,8.7295275 c -0.0063,-0.2794185 0.02421,-0.5567125 0.05725,-0.8335651 0.02916,-0.2765422 0.09653,-0.5463761 0.151293,-0.8183675 0.07119,-0.3114642 0.0944,-0.6306729 0.114071,-0.9487479 0.01353,-0.2644246 0.01826,-0.5293575 0.01939,-0.7941191 -0.0029,-0.2555929 -0.01568,-0.5111347 -0.02583,-0.76658 -0.0032,-0.2136646 -0.0063,-0.4274653 -0.0037,-0.6411495 -3.78e-4,-0.1058209 0.0028,-0.2111813 0.01322,-0.3164673 0,0 -1.147861,-0.6027314 -1.147861,-0.6027314 v 0 c -0.01622,0.1114226 -0.0204,0.2222684 -0.01337,0.3348542 0.0044,0.2170481 0.0047,0.4341931 0.01511,0.6511125 0.0068,0.253841 0.02787,0.5072562 0.02488,0.7613325 0.0011,0.265261 0.0058,0.5305416 -0.0024,0.7957577 -0.01174,0.3128165 -0.03481,0.6253404 -0.105868,0.9312335 -0.05773,0.2747015 -0.139634,0.5453343 -0.162149,0.8263228 -0.02697,0.2815768 -0.07475,0.5624375 -0.06338,0.8461801 5.65e-4,0.2483286 -0.01012,0.4970327 0.01125,0.7448495 0.01843,0.1996468 0.0431,0.4004869 0.09457,0.5944703 z" />
    <path
       style="fill:#000000;fill-opacity:0.807034"
       id="path5"
       d="m 14.816037,20.853146 c 0.05574,0.236131 0.08093,0.478185 0.101147,0.71953 0.01987,0.363916 0.05527,0.726801 0.08723,1.089843 0.02899,0.380747 0.04102,0.762641 0.03726,1.144422 0.0036,0.337422 -0.04381,0.671528 -0.09565,1.003957 -0.06745,0.362533 -0.168533,0.717285 -0.274012,1.070205 -0.110991,0.34309 -0.202719,0.691859 -0.271968,1.045661 -0.05039,0.237377 -0.0873,0.475964 -0.099,0.718312 -0.01161,0.209258 0.0025,0.41823 0.02281,0.626371 0.01769,0.145778 0.0091,0.07363 0.02587,0.21643 0,0 1.150233,0.568412 1.150233,0.568412 v 0 c -0.01825,-0.141524 -0.0095,-0.07067 -0.02628,-0.212549 -0.01847,-0.203054 -0.04096,-0.406964 -0.0327,-0.61111 0.01086,-0.239688 0.02881,-0.479227 0.06864,-0.716097 0.05432,-0.353077 0.143469,-0.698108 0.255587,-1.037275 0.109485,-0.356425 0.204718,-0.717089 0.284702,-1.081324 0.06674,-0.337115 0.10584,-0.678522 0.104788,-1.022726 0.0026,-0.38684 -0.01858,-0.773446 -0.04344,-1.159392 -0.02363,-0.35945 -0.0541,-0.718473 -0.06725,-1.078581 -0.01213,-0.233798 -0.03406,-0.466753 -0.04583,-0.70048 z" />
    <path
       style="fill:#000000;fill-opacity:0.807034"
       id="path6"
       d="m 22.18112,16.171014 c 0.137835,-0.02836 0.272089,-0.07125 0.409428,-0.101772 0.266397,-0.04619 0.53763,-0.05133 0.807301,-0.05515 0.295672,-0.01659 0.588917,0.01229 0.882248,0.04466 0.313091,0.0424 0.627009,0.07847 0.939848,0.122702 0.266638,0.03657 0.530846,0.08861 0.796628,0.130372 0.153947,0.02419 0.30868,0.04309 0.462882,0.06559 0.07333,0.0099 0.146693,0.01959 0.219986,0.02976 0.150044,0.02083 0.244994,0.03679 0.394504,0.05262 0.184551,0.01955 0.369975,0.02886 0.555218,0.03869 0.33,0.01431 0.660499,0.01784 0.990743,0.01246 0.387691,0.0088 0.774023,-0.01962 1.16002,-0.05131 0.310627,-0.02648 0.618823,-0.07236 0.92715,-0.117356 0.177901,-0.02722 0.355585,-0.0557 0.533521,-0.08269 0,0 -1.045897,-0.733695 -1.045897,-0.733695 v 0 c -0.172645,0.03169 -0.345228,0.06372 -0.518972,0.08898 -0.303396,0.04152 -0.606088,0.08864 -0.910656,0.121096 -0.12583,0.01208 -0.247459,0.02486 -0.373773,0.03232 -0.260495,0.01538 -0.521409,0.0078 -0.78216,0.0081 -0.328981,-0.0059 -0.65815,-0.0027 -0.986942,-0.01769 -0.382513,-0.0202 -0.762869,-0.06263 -1.142312,-0.114844 -0.428402,-0.06207 -0.853307,-0.144132 -1.280817,-0.211825 -0.316092,-0.0468 -0.63296,-0.08874 -0.950495,-0.124557 -0.299154,-0.03 -0.599176,-0.05216 -0.900063,-0.03718 -0.279184,0.0106 -0.559278,0.02164 -0.835717,0.06476 -0.146763,0.03174 -0.293454,0.06286 -0.440991,0.09067 z" />
    <path
       style="fill:#000000;fill-opacity:0.807034"
       id="path8"
       d="m 8.2886575,15.322642 c -0.2680726,0.002 -0.5317302,0.05018 -0.7947878,0.09736 -0.4101335,0.06626 -0.8137968,0.163382 -1.2133167,0.27605 -0.303661,0.08549 -0.6037903,0.183569 -0.9081846,0.266487 -0.2433499,0.06629 -0.2951254,0.07489 -0.544423,0.130855 -0.5177603,0.106899 -1.0432855,0.15897 -1.570757,0.181332 -0.4090763,0.01559 -0.8176116,0.0087 -1.2259184,-0.0186 -0.3853203,-0.02312 -0.7662469,-0.07843 -1.14094469,-0.16998 0,0 1.01601839,0.770982 1.01601839,0.770982 v 0 c 0.367724,0.06452 0.7395555,0.09231 1.1110775,0.126271 0.410332,0.03109 0.8208418,0.04208 1.2313467,0.0031 0.2520281,-0.01823 0.5046727,-0.03496 0.7552989,-0.06826 0.2708299,-0.03598 0.5387886,-0.09134 0.8069398,-0.142695 0.5003932,-0.108078 0.994112,-0.240605 1.4862699,-0.381322 0.3983038,-0.10442 0.7994811,-0.203166 1.2073782,-0.262154 0.2803538,-0.03251 0.5618119,-0.06261 0.8443276,-0.03908 z" />
    <path
       style="fill:#000000;fill-opacity:0.807034"
       id="path9"
       d="m 20.189466,11.34699 c 0.112445,-0.07579 0.23865,-0.12684 0.361151,-0.183786 0.141098,-0.07939 0.290408,-0.142511 0.4406,-0.202425 0.23079,-0.09775 0.464549,-0.188544 0.701896,-0.269105 0.354406,-0.125301 0.715949,-0.229985 1.07734,-0.333151 0.334693,-0.0995 0.664556,-0.213743 0.989465,-0.341439 0.149422,-0.065553 0.303713,-0.1224935 0.449278,-0.1967067 0.170603,-0.086978 0.336357,-0.1870408 0.501019,-0.2845566 0.36044,-0.1995777 0.707784,-0.4194175 1.040718,-0.6618582 0.322276,-0.2309642 0.630797,-0.4798351 0.93171,-0.737767 0.296255,-0.2588456 0.599407,-0.5096222 0.898978,-0.7645697 0.194005,-0.1624941 0.380026,-0.3342437 0.560668,-0.5113961 0.125802,-0.1223515 0.249766,-0.2465805 0.37617,-0.3683103 0,0 -1.098827,-0.6732864 -1.098827,-0.6732864 v 0 c -0.12074,0.1256768 -0.243949,0.2489607 -0.367503,0.3718668 -0.178287,0.1738361 -0.355667,0.3486227 -0.539323,0.5168519 -0.287533,0.2624679 -0.570283,0.5304808 -0.872731,0.7760602 -0.309423,0.2449183 -0.618006,0.4911307 -0.934895,0.7263744 -0.331106,0.2364202 -0.672022,0.4585823 -1.030362,0.652015 -0.311652,0.166502 -0.626619,0.3267738 -0.955428,0.4573281 -0.322125,0.1268495 -0.650543,0.2343052 -0.982191,0.3334262 -0.360377,0.1117045 -0.720302,0.2248788 -1.081324,0.3345008 -0.248607,0.078341 -0.496505,0.1580676 -0.739125,0.2538396 -0.15282,0.06117 -0.300087,0.133833 -0.448181,0.205463 -0.127447,0.05832 -0.25329,0.119913 -0.380652,0.178169 z" />
    <circle
       id="path10"
       style="fill:#000000;stroke:#000000"
       cx="10.971709"
       cy="11.47877"
       r="0.0014905893" />
    <path
       style="fill:#000000;fill-opacity:0.807034"
       id="path11"
       d="m 11.301774,11.233944 c -0.139945,0.04759 -0.284721,0.05831 -0.4313,0.05482 -0.300831,-0.02861 -0.56477,-0.178834 -0.81718,-0.333862 C 9.8249524,10.799193 9.59821,10.634265 9.4030494,10.437188 9.3674254,10.401214 9.3346447,10.362532 9.3004423,10.325203 9.0732805,10.069785 8.9044747,9.7718028 8.7450309,9.4714766 8.5871998,9.152062 8.4166431,8.8392939 8.2479468,8.5255842 8.1021122,8.2260049 7.9337668,7.9402716 7.7294686,7.677094 7.5181515,7.4152434 7.2676855,7.1881495 7.0128534,6.9696494 6.8168605,6.8132293 6.6405799,6.6300329 6.4291365,6.4933139 6.3851888,6.4648973 6.3391016,6.4399349 6.2940841,6.4132454 5.99256,6.2497509 5.6737891,6.1215209 5.3561847,5.9932971 5.1960283,5.9302918 5.0363848,5.8660653 4.8776797,5.799493 c 0,0 -1.0670506,0.7195381 -1.0670506,0.7195381 v 0 c 0.1695277,0.053573 0.3387799,0.1086523 0.5050693,0.17164 0.3117313,0.1220571 0.6234704,0.2478517 0.9184581,0.4069841 0.2524251,0.1600399 0.4920684,0.3362686 0.7161968,0.5346155 0.2495137,0.2123333 0.4894758,0.4357739 0.6977954,0.6896088 0.2024358,0.2559698 0.3717099,0.5327427 0.512393,0.8275114 0.169961,0.3122671 0.3460432,0.6212619 0.5064707,0.9386251 0.1611726,0.311446 0.3192168,0.627185 0.5561226,0.890045 0.083781,0.09356 0.1277901,0.148088 0.2218815,0.231663 0.174969,0.155413 0.3735935,0.282916 0.5643534,0.417265 0.2550564,0.165338 0.5080002,0.346189 0.8113585,0.409213 0.1443006,0.02382 0.2902546,0.02872 0.4342686,-0.0018 z" />
    <path
       style="fill:#000000;fill-opacity:0.807034"
       id="path12"
       d="m 19.468264,19.804292 c 0.151057,0.02212 0.286924,0.08784 0.418025,0.162462 0.241224,0.150237 0.436212,0.356539 0.622723,0.567961 0.217351,0.251993 0.392754,0.535248 0.568002,0.816963 0.157249,0.261101 0.320149,0.518766 0.488348,0.772935 0.179872,0.265112 0.357712,0.531568 0.533257,0.79957 0.133933,0.179036 0.250465,0.37022 0.376915,0.554306 0.07439,0.108298 0.153732,0.213112 0.230436,0.319785 0.217559,0.297412 0.426483,0.600917 0.640302,0.901001 0.196176,0.262048 0.404181,0.514362 0.615069,0.764525 0.03122,0.03813 0.06255,0.07616 0.09365,0.114387 0.03821,0.04695 0.132957,0.166167 0.174378,0.211511 0.1,0.109471 0.211377,0.20968 0.317961,0.312612 0.195766,0.185325 0.405238,0.354559 0.632736,0.499123 0.197872,0.11835 0.400815,0.228941 0.607071,0.331993 0.15356,0.07319 0.313702,0.130876 0.473938,0.187369 0.128823,0.0463 0.26184,0.07871 0.39491,0.110013 0.09922,0.03296 0.202033,0.04458 0.305154,0.05776 0,0 1.05921,-0.742871 1.05921,-0.742871 v 0 c -0.097,-0.02058 -0.194722,-0.03475 -0.291474,-0.05615 -0.131389,-0.03258 -0.266141,-0.05255 -0.393879,-0.09949 -0.161641,-0.0461 -0.319741,-0.102884 -0.474898,-0.167578 -0.209532,-0.08811 -0.40976,-0.19829 -0.607315,-0.310268 C 26.032881,25.768497 25.809515,25.627276 25.624168,25.438679 25.415616,25.243503 25.220244,25.03653 25.041063,24.813769 24.828948,24.568515 24.61776,24.321801 24.427158,24.059188 24.204561,23.76592 23.990375,23.466464 23.773572,23.16891 23.572575,22.878336 23.385803,22.578146 23.187036,22.286019 23.0062,22.02246 22.828157,21.75696 22.654278,21.488758 c -0.161859,-0.257571 -0.331811,-0.510005 -0.491197,-0.769166 -0.179827,-0.286684 -0.363543,-0.57172 -0.578937,-0.833497 -0.188826,-0.220024 -0.3806,-0.441839 -0.616077,-0.613785 -0.12789,-0.09363 -0.26382,-0.165635 -0.414553,-0.215907 z" />
    <path
       style="fill:#000000;fill-opacity:0.807034"
       id="path13"
       d="m 10.625155,19.133747 c -0.138061,0.104756 -0.268576,0.218818 -0.397607,0.334359 -0.181212,0.167148 -0.3688263,0.327098 -0.5508343,0.493386 -0.1910646,0.175835 -0.3401277,0.390311 -0.5049914,0.589489 -0.2290063,0.280318 -0.4343971,0.578524 -0.6519941,0.867443 -0.273715,0.340445 -0.5467712,0.681609 -0.8264633,1.017185 -0.2060881,0.242931 -0.41668,0.483046 -0.6597303,0.69027 -0.1658088,0.141367 -0.264816,0.205653 -0.4418252,0.331108 -0.3947144,0.268061 -0.8153088,0.491931 -1.2466213,0.694239 -0.3472085,0.157544 -0.7137214,0.263347 -1.0747233,0.382971 -0.2463166,0.08156 -0.4980525,0.144706 -0.7305477,0.261778 -0.1699439,0.08939 -0.3140503,0.218804 -0.4557604,0.346596 -0.1820878,0.162202 -0.359683,0.329862 -0.5495148,0.483129 -0.025287,0.01811 -0.050574,0.03621 -0.07586,0.05432 0,0 1.0912586,0.685998 1.0912586,0.685998 v 0 c 0.023884,-0.02094 0.047768,-0.04188 0.071652,-0.06282 0.179881,-0.164349 0.3621448,-0.326156 0.5500844,-0.481283 0.1425593,-0.112165 0.2797465,-0.233766 0.4409735,-0.319172 0.2251696,-0.108371 0.4641131,-0.18071 0.6996122,-0.262905 0.3561797,-0.126222 0.7145816,-0.248514 1.0550753,-0.413981 0.2134487,-0.106051 0.431049,-0.207865 0.6383076,-0.325789 0.1293174,-0.07358 0.2670194,-0.166959 0.3895084,-0.250593 0.071162,-0.04859 0.1415995,-0.09823 0.2123993,-0.147343 0.4145676,-0.304387 0.8214768,-0.62709 1.1434372,-1.032094 0.2773136,-0.338798 0.5499093,-0.681393 0.8233831,-1.023287 0.046898,-0.05851 0.093796,-0.11701 0.1406936,-0.175515 0.045561,-0.05387 0.0922,-0.106837 0.1366824,-0.161597 0.136113,-0.167561 0.2613895,-0.343995 0.4008355,-0.508944 0.297126,-0.346812 -0.09295,0.10664 0.199322,-0.2273 0.10153,-0.116006 0.196673,-0.238272 0.314683,-0.338732 0.177105,-0.168398 0.357492,-0.333314 0.544618,-0.490588 0.134977,-0.10944 0.272628,-0.217749 0.425595,-0.301289 z" />
  </g>
</svg>
